<?xml version="1.0" encoding="UTF-8"?>
<svg id="Capa_1" xmlns="http://www.w3.org/2000/svg" version="1.1" viewBox="0 0 792 246">
  <!-- Generator: Adobe Illustrator 29.2.1, SVG Export Plug-In . SVG Version: 2.1.0 Build 116)  -->
  <defs>
    <style>
      .st0 {
        fill: #fff;
      }

      .st1 {
        fill: #c02e37;
      }
    </style>
  </defs>
  <path class="st1" d="M590.2,204.9c0,4.5-2.1,6.9-6.4,6.9s-6.4-2.4-6.4-6.9v-23.7h-10.4v24c0,10.4,7.2,15.7,16.8,15.7s16.8-5.1,16.8-15.7v-24h-10.4v23.7ZM252.7,184.7c-1.1,1.9-2.4,3.7-3.7,5.3h310.5v-8.8H254.3c-.5,1.1-1.1,2.4-1.6,3.5ZM650.6,180.4l-18.9,39.7h10.1l1.9-4.8h13.6l2.1,4.8h10.7l-18.9-39.7c0-.3-.5-.3-.5,0ZM646.9,207.9l3.5-8.3,3.5,8.3h-6.9ZM637.1,195.1c0-8-5.6-13.8-15.4-13.8h-15.7v38.9h10.4v-11.2h5.3c10.1,0,15.4-5.9,15.4-13.8ZM621.3,200.1h-4.8v-10.1h4.8c3.5,0,5.3,1.9,5.3,5.1s-1.9,5.1-5.3,5.1ZM722.3,181.2h-15.7v38.9h10.4v-11.2h5.3c9.9,0,15.4-5.9,15.4-13.8s-5.6-13.8-15.4-13.8ZM721.7,200.1h-4.8v-10.1h4.8c3.5,0,5.3,1.9,5.3,5.1s-1.9,5.1-5.3,5.1ZM683.4,204.7h14.1v-8.3h-14.1v-6.4h16.8v-8.8h-27.4v38.9h28.2v-8.8h-17.6v-6.7ZM74.9,39.7l4.1-13.5H30.1l-6,43.6h12.7c4.1-2.2,6.9-2.9,10.4-2.9,5.3,0,9.2,2.5,9.2,10.2s-5.3,17.7-15.5,17.7-10.9-2.7-14.6-7.5l-11.4,9.7c5.3,6.8,12.9,12.1,25.5,12.1,25.6,0,34.9-19.5,34.9-32.8s-7.9-22.2-19.6-22.2-7.9.7-12,2.6l2.4-17h28.8ZM86.2,70h24.2l1-7.1h-24.2l-1,7.1ZM103.9,29.5c-8.5,0-14.1,6.2-14.1,14.8s4.1,10.2,10.9,10.2,14-6.2,14-14.8-4-10.2-10.8-10.2ZM101.2,48.6c-2,0-3-1.3-3-4,0-4.3,1.3-9.1,5.2-9.1s3,1.2,3,3.9c0,4.3-1.3,9.2-5.1,9.2Z"/>
  <path class="st0" d="M122.2,201.9h13.9l.5-3.4h-9.3l1-7h7.6l.5-3.4h-7.6l1-6.7h8.7l1-3.4h-13.7l-3.4,24ZM97.6,181.6h6.4l-2.8,20.3h4.5l2.8-20.3h6.2l1-3.6h-17.6l-.5,3.6ZM158.9,194.9l-1.9-17h-5.6l-5.2,24h4.4l1.9-9.8c.7-3.4,1.3-6.8,1.5-10.2l2.2,17.4h4.3l6.7-17.5c-.5,2.9-.8,6.4-1,9.9l-.8,10.1h4.4l1.5-24h-6.1l-6.3,17ZM81.9,180.9c1.9,0,3.4.6,4.9,2l2.6-2.5c-1.9-1.9-4.3-3-7.6-3-5.9,0-8.8,3.7-8.8,7.2s2,5.1,6.3,6.5c3.1,1.1,4.1,2,4.1,3.7s-1.9,4-5,4-4.2-.9-5.7-2.4l-2.7,2.6c1.8,1.9,4.4,3.4,8.3,3.4,7.1,0,9.9-4.3,9.9-8.1s-2.6-5.6-6.2-6.7c-3.3-1.1-4.2-1.9-4.2-3.5s1.8-3.2,4.2-3.2ZM206.4,70.6c3.4,0,6.1-1.9,8.3-4.8v3.9c-.1,0,6.5,0,6.5,0l3.7-26.3h-7.7l-2.3,16.8c-1.4,2.2-3.2,4.2-5.1,4.2s-2.1-.8-1.7-3.4l2.4-17.5h-7.7l-2.7,18.8c-.7,5.1,1.4,8.4,6.2,8.4ZM238.8,70.6c4.1,0,7.6-1.4,10.4-3.5l-2.8-4.7c-2.4,1.6-4.5,2.4-6.7,2.4s-4.5-1.1-4.7-4.7c8.3-.8,16.9-3,16.9-10.4s-3.3-7.2-9.7-7.2c-11,0-14.9,9.7-14.9,16.8s3.8,11.1,11.4,11.1ZM241.7,47.8c1.9,0,2.5,1.2,2.5,2.3,0,2.5-2.2,4.9-8.8,5.3.7-3.8,2.5-7.6,6.2-7.6ZM188,70.6c3.5,0,6.4-1.1,9.1-3l-2.9-5c-1.9,1.2-3.3,1.8-5.2,1.8s-4.1-1.1-4.1-4.9,1.3-10.9,6.7-10.9,3.1.5,4.6,1.8l3.8-4.5c-2.2-2.2-5.1-3.4-8.4-3.4-10.7,0-14.7,9.8-14.7,16.6s4.1,11.3,11.2,11.3ZM330,70.6c11,0,14.6-9.6,14.7-16.8,0-6.9-4-11.2-11-11.2-11.1,0-14.7,9.5-14.7,16.8s4,11.2,11,11.2ZM333.1,48.3c2.4,0,3.7,1.5,3.7,5,0,4-1.1,11.5-6.2,11.5s-3.7-1.5-3.7-5,1-11.5,6.2-11.5ZM673.8,62.1h-13.3c13.4-10.2,15.3-14.6,15.3-19.1s-3.6-8.7-10.3-8.7-8.5,2-11.8,5.4l4.2,3.9c2.2-2.2,4-3.4,6.4-3.4s3.7,1.3,3.7,3.6c0,3.9-2.1,6.3-16.1,18.6l-.7,5.6h21.1l1.7-5.9ZM367.4,70.5c3.5,0,6.1-2,7.9-4.8v4s5.4,0,5.4,0l5.1-36.6-6.1-.6-1.9,13.2c-1.4-1.6-3.5-2.9-6.3-2.9-9,0-12.4,10.2-12.4,17.2s2.8,10.5,8.3,10.5ZM372.8,47.5c1.9,0,3.3.9,4.4,2.5l-1.4,10.3c-1.9,3.1-3.9,5.3-6.6,5.3s-3.6-1.5-3.6-5.5,1.6-12.6,7.2-12.6ZM614.4,75.5l-7.2-17.3-31.2,18.4,5.1,11.7,33.3-12.8ZM688.4,68.9c11.5,0,14.9-13.3,14.9-22s-3.7-12.5-10.3-12.5c-11.5,0-14.9,13.1-14.9,21.9s3.6,12.6,10.3,12.6ZM692.6,40.1c2,0,3.2,1.3,3.2,5.2,0,6.9-1.9,17.9-6.9,17.9s-3.2-1.4-3.2-5.3c0-7,1.9-17.7,6.9-17.7ZM283.6,61c-.8,6.1,1.9,9.6,7.3,9.6s5-.6,7.2-1.9l-2-5.1c-1.1.5-1.9.8-3,.8-1.5,0-2.1-.8-1.8-3.4l1.7-12.1h5.1l1.6-5.4h-6l.9-6.6-6.6.7-1.6,5.8h-4l-.7,5.4h3.6l-1.7,12.1ZM156.2,69.7l2.1-14.5c1.8-3.7,3.8-6.3,5.8-6.3s1.9.7,1.5,3.4l-2.4,17.4h7.7l2.6-19c.7-5.1-1.6-8.1-5.8-8.1s-6.7,2.2-9,5.4v-4.6c.1,0-6.5,0-6.5,0l-3.7,26.3h7.7ZM704,62.5l-.7,5.6h21.1l1.7-5.9h-13.3c13.4-10.2,15.3-14.6,15.3-19.1s-3.6-8.7-10.3-8.7-8.5,2-11.8,5.4l4.2,3.9c2.2-2.2,4-3.4,6.4-3.4s3.7,1.3,3.7,3.6c0,3.9-2.1,6.3-16.1,18.6ZM309.8,57.5c1.4-4.2,3.2-7.3,6.5-7.3s1.4.1,2.2.3l2.2-7.5c-.8-.2-1.6-.4-2.6-.4-2.9,0-5.6,1.9-7.4,5.6v-4.9c0,0-6.6,0-6.6,0l-3.7,26.3h7.7l1.7-12.2ZM399.7,65.6c-2.9,0-5-1.4-5.1-5.4,8.6-.9,16.9-3,16.9-10.4s-3.1-6.9-9.1-6.9c-10.5,0-14.3,9.7-14.3,16.8s3.7,10.9,10.8,10.9,7.1-1.3,10-3.4l-2.4-4c-2.4,1.7-4.5,2.4-6.8,2.4ZM402.1,47.3c2.3,0,3,1.5,3,2.7,0,3.4-3.2,5.3-10.2,5.9.7-4.2,2.7-8.6,7.2-8.6ZM570.5,169.5h23.2l9.9-70.3h-23.2l-9.9,70.3ZM567.3,97.1c-7.7,0-14.9,5.3-19.7,14.9v-12.8h-20l-9.9,70.3h23.2l4.3-30.9c3.5-10.1,7.7-18.4,16.2-18.4s4,.3,6.1.8l6.7-22.6c-2.4-.8-4.3-1.1-6.9-1.3ZM487.9,97.1c-30.4,0-41,25.8-41,45s10.1,30.1,31.7,30.1,21-4.3,28.8-9.9l-8.3-13.6c-6.4,4.3-11.7,6.4-17.6,6.4s-10.9-2.7-11.5-10.9c21.3-1.9,45-8,44.7-27.4,0-11.2-9.3-19.7-26.9-19.7ZM471.1,130.4c1.6-9.1,5.9-18.4,14.6-18.4s5.9,2.7,5.9,5.6c0,5.1-3.7,12-20.5,12.8ZM718.3,113.6c5.3,0,11.2,1.9,16.2,5.1l10.1-12.5c-6.7-5.3-15.7-9.1-26.4-9.1-19.7,0-30.6,10.7-30.6,23.4s5.9,16.8,17.6,20.8c11.2,4,13.6,5.1,13.6,8.8s-3.7,5.6-9.3,5.6c-8,0-14.4-3.5-18.9-7.5l-11.5,12c6.1,6.9,17.6,12,30.1,12,23.7,0,32.2-12.8,32.2-25s-6.4-17.6-17.8-21.3c-11.2-3.7-13.3-4.8-13.3-7.7s2.4-4.5,8-4.5ZM744.4,46.4c-1.5,0-3.2.3-4.9,1.1l1-6.9h11.7l1.7-5.5h-19.9l-2.4,17.8h5.2c1.7-.9,2.8-1.2,4.2-1.2,2.1,0,3.8,1,3.8,4.1s-2.1,7.2-6.3,7.2-4.4-1.1-5.9-3.1l-4.6,3.9c2.1,2.8,5.3,4.9,10.4,4.9,10.4,0,14.2-7.9,14.2-13.4s-3.2-9.1-8-9.1ZM435.4,61.6c-8.3,0-14.9,6.1-14.9,14.4s4.5,11.5,12,11.5,14.9-6.1,14.9-14.4-4.8-11.5-12-11.5ZM145.1,63.9h-12.7l1.2-8.8h10.4l.7-5.7h-10.4l1.2-8.2h11.9l1.7-5.8h-20.7l-4.8,34.3h20.7l.8-5.8ZM673,148.2l6.4-43.4c-9.6-5.3-20.2-7.7-30.1-8-30.1,0-41,26.6-41,46.9s8,28.2,22.9,28.2,16.2-5.3,21-12.3c2.4,7.7,9.3,11.2,17.3,11.7l6.7-14.9c-3.5-1.3-3.7-3.7-3.2-8.3ZM650.6,146.1c-3.5,5.9-7.5,8.8-11.7,8.8s-6.7-1.9-6.7-11.2,4-30.4,16.2-30.4,4.5.5,6.7,1.1l-4.5,31.7ZM228,97.6c-30.6,0-41.5,26.1-41.5,45s8,27.4,23.2,27.4,13.6-3.7,18.1-8.8l-.8,6.1c-1.9,12.5-8.5,14.6-15.7,14.6s-12-1.6-19.2-5.6l-7.5,14.9c7.7,5.1,18.1,8,26.9,8,24,0,34.9-10.7,38.6-36.2l8.3-58.3c-9.3-5.3-20.2-7.7-30.4-7.2ZM229.6,143.9c-3.5,5.1-7.7,8.5-12,8.5s-7.2-2.1-7.2-10.9,4.3-28.2,17-28c2.7,0,4.3.5,6.7,1.1l-4.5,29.3ZM164.3,97.1c-9.1,0-17.8,5.6-23.7,14.4v-12h-20l-9.9,70.3h23.2l5.3-37.6c4.8-9.9,9.1-16,13.3-16s4,1.6,3.2,8l-6.4,45.5h23.2l7.2-51.4c1.9-13.6-4.3-21.3-15.4-21.3ZM409.1,169.5h23.2l9.9-70.3h-23.2l-9.9,70.3ZM85.2,77.9l-12.8,91.6h24l12.8-91.6h-24ZM269.2,49c1.1,0,1.9.7,1.5,3.4l-2.4,17.4h7.7l2.6-19c.7-5.1-1.6-8.1-5.8-8.1s-6.7,2.2-9,5.4v-4.6c.1,0-6.5,0-6.5,0l-3.7,26.3h7.7l2.1-14.5c1.8-3.7,3.8-6.3,5.8-6.3ZM387.2,97.1c-9.1,0-17.8,5.6-23.7,14.4v-12h-20l-9.9,70.3h23.2l5.3-37.6c4.8-9.9,9.1-16,13.3-16s4,1.6,3.2,8l-6.4,45.5h23.2l7.2-51.4c2.1-13.6-4.3-21.3-15.4-21.3ZM304.4,97.1c-30.4,0-41,25.8-41,45s10.1,30.1,31.7,30.1,21-4.3,28.8-9.9l-8.3-13.6c-6.4,4.3-11.7,6.4-17.6,6.4s-10.9-2.7-11.5-10.9c21-1.9,44.7-8,44.7-27.4,0-11.2-9.3-19.7-26.9-19.7ZM287.6,130.4c1.6-9.1,5.9-18.4,14.6-18.4s5.9,2.7,5.9,5.6c0,5.1-4,12-20.5,12.8Z"/>
</svg>